# Blender v2.74 (sub 0) OBJ File: ''
# www.blender.org
mtllib shield-01.mtl
o Strap
v 0.339390 -3.033976 0.036362
v 0.335305 -3.073179 -0.082635
v 0.326131 -3.000160 -0.201616
v 0.318762 -2.870037 -0.230886
v 0.318762 -2.780803 -0.148573
v 0.326131 -2.799495 -0.016515
v 0.335305 -2.912206 0.065852
v -0.478385 -2.594603 -0.439955
v -0.476145 -2.649850 -0.541560
v -0.471120 -2.613031 -0.621296
v -0.467092 -2.511885 -0.619152
v -0.467092 -2.422652 -0.536840
v -0.471120 -2.412366 -0.436195
v -0.476145 -2.488877 -0.393072
v -0.478385 -1.216398 -1.934045
v -0.476145 -1.322123 -1.980928
v -0.471120 -1.398634 -1.937805
v -0.467092 -1.388348 -1.837161
v -0.467092 -1.299115 -1.754848
v -0.471120 -1.197969 -1.752704
v -0.476145 -1.161150 -1.832440
v 0.339390 -0.777025 -2.410362
v 0.335305 -0.898794 -2.439852
v 0.326131 -1.011505 -2.357485
v 0.318762 -1.030197 -2.225427
v 0.318762 -0.940964 -2.143114
v 0.326131 -0.810840 -2.172384
v 0.335305 -0.737821 -2.291365
v -0.516433 -1.226653 -1.922927
v -0.512800 -1.419401 -2.015847
v -0.516433 -2.584347 -0.451073
v -0.512800 -2.692493 -0.635709
v -0.480569 -1.577649 -1.973098
v -0.480569 -2.662632 -0.796886
v -0.480569 -1.148369 -1.577114
v -0.480569 -2.233351 -0.400902
v -0.512800 -1.118507 -1.738291
v -0.512800 -2.391599 -0.358153
v -0.499096 -1.183510 -1.969698
v -0.493794 -1.349012 -2.046722
v -0.511778 -1.185465 -1.967579
v -0.506012 -1.380066 -2.059850
v -0.493794 -2.717597 -0.563060
v -0.499096 -2.627490 -0.404302
v -0.506012 -2.733183 -0.592956
v -0.511778 -2.625535 -0.406421
v -0.468952 -1.492394 -1.989326
v -0.472102 -1.550897 -2.002357
v -0.468952 -2.671937 -0.710601
v -0.472102 -2.689641 -0.767863
v -0.468952 -2.318606 -0.384675
v -0.468952 -1.139063 -1.663399
v -0.472102 -2.260104 -0.371642
v -0.472102 -1.121360 -1.606137
v -0.493794 -1.093403 -1.810940
v -0.506012 -1.077817 -1.781044
v -0.493794 -2.461988 -0.327278
v -0.506012 -2.430934 -0.314151
vt 0.200000 0.000000
vt 0.400000 0.000000
vt 0.400000 0.142857
vt 0.200000 0.142857
vt 0.400000 0.285714
vt 0.200000 0.285714
vt 0.400000 0.428571
vt 0.200000 0.428571
vt 0.400000 0.571429
vt 0.200000 0.571429
vt 0.400000 0.714286
vt 0.200000 0.714286
vt 0.400000 0.857143
vt 0.200000 0.857143
vt 0.400000 1.000000
vt 0.200000 1.000000
vt 0.600000 0.000000
vt 0.600000 0.142857
vt 0.600000 0.285714
vt 0.600000 0.428571
vt 0.600000 0.571429
vt 0.600000 0.714286
vt 0.600000 0.857143
vt 0.600000 1.000000
vt 0.800000 0.000000
vt 0.800000 0.142857
vt 0.800000 0.285714
vt 0.800000 0.428571
vt 0.800000 0.571429
vt 0.800000 0.714286
vt 0.800000 0.857143
vt 0.800000 1.000000
vt 0.000000 0.000000
vn -0.586900 -0.750400 0.304100
vn -0.586700 -0.750500 0.304200
vn -0.586300 -0.750900 0.304100
vn -0.586200 -0.750900 0.304100
vn -0.172500 -0.854700 -0.489600
vn -0.172900 -0.854600 -0.489700
vn -0.171900 -0.854900 -0.489500
vn -0.171600 -0.854900 -0.489600
vn 0.424300 -0.130500 -0.896100
vn 0.423600 -0.130800 -0.896300
vn 0.424900 -0.130200 -0.895800
vn 0.425600 -0.129900 -0.895600
vn 0.585800 0.549500 -0.595700
vn 0.425600 0.903100 0.057300
vn 0.424900 0.903400 0.057600
vn 0.423600 0.904000 0.058100
vn 0.424300 0.903700 0.057900
vn -0.171600 0.556800 0.812700
vn -0.171900 0.556800 0.812700
vn -0.172900 0.557000 0.812300
vn -0.172500 0.556900 0.812500
vn -0.586200 -0.242600 0.773000
vn -0.586300 -0.242600 0.772900
vn -0.586700 -0.242700 0.772600
vn -0.586900 -0.242700 0.772500
vn -1.000000 -0.000000 -0.000000
vn -0.996400 -0.062900 -0.056400
vn -0.996400 -0.061300 -0.058200
vn -0.394900 -0.757200 -0.520300
vn -0.394900 -0.579600 -0.712800
vn -0.330600 -0.648900 -0.685300
vn -0.328300 -0.720300 -0.611000
vn 0.997300 -0.052300 -0.051300
vn 0.997300 -0.055400 -0.048000
vn 0.992200 -0.086300 -0.089700
vn 0.992200 -0.096300 -0.078800
vn 0.992200 0.096300 0.078800
vn 0.992200 0.086300 0.089700
vn 0.997300 0.052300 0.051300
vn 0.997300 0.055400 0.048000
vn -0.330600 0.648900 0.685300
vn -0.328300 0.720300 0.611100
vn -0.394900 0.757200 0.520300
vn -0.394900 0.579600 0.712800
vn -0.996400 0.062900 0.056400
vn -0.996400 0.061300 0.058200
vn -0.586700 0.242700 -0.772600
vn -0.586900 0.242700 -0.772500
vn -0.586200 0.242600 -0.773000
vn -0.586300 0.242600 -0.772900
vn -0.172900 -0.557000 -0.812300
vn -0.172500 -0.556900 -0.812500
vn -0.171600 -0.556800 -0.812700
vn -0.171900 -0.556800 -0.812700
vn 0.423600 -0.904000 -0.058100
vn 0.424300 -0.903700 -0.057900
vn 0.425600 -0.903100 -0.057300
vn 0.424900 -0.903400 -0.057600
vn 0.585800 -0.549500 0.595700
vn 0.424900 0.130200 0.895800
vn 0.425600 0.129900 0.895600
vn 0.424300 0.130500 0.896100
vn 0.423600 0.130800 0.896300
vn -0.171900 0.854900 0.489500
vn -0.171600 0.854900 0.489600
vn -0.172500 0.854700 0.489600
vn -0.172900 0.854600 0.489700
vn -0.586300 0.750900 -0.304100
vn -0.586200 0.750900 -0.304100
vn -0.586900 0.750400 -0.304100
vn -0.586700 0.750500 -0.304200
vn 0.463000 0.600900 -0.651500
vn 0.602900 0.340200 -0.721700
vn 0.204500 0.428000 -0.880400
vn 0.239700 0.626700 -0.741500
vn -0.053200 0.418600 -0.906600
vn -0.055700 0.677000 -0.733900
vn -0.864400 0.340800 -0.369500
vn -0.842200 0.156700 -0.515900
vn -0.843000 0.169000 -0.510800
vn -0.864100 0.341300 -0.370000
vn 0.601100 -0.713400 0.360200
vn 0.463000 -0.600900 0.651500
vn 0.240800 -0.692400 0.680200
vn 0.514100 -0.812500 0.275000
vn 0.160000 -0.848900 0.503800
vn -0.055700 -0.677000 0.733900
vn -0.053200 -0.869900 0.490300
vn -0.842200 -0.501600 0.197800
vn -0.864400 -0.340800 0.369500
vn -0.864100 -0.341300 0.370000
vn -0.843000 -0.495500 0.209600
vn 0.579500 0.369600 -0.726300
vn 0.705500 0.197700 -0.680500
vn 0.560000 0.096200 -0.822900
vn 0.511900 0.231400 -0.827300
vn 0.372600 -0.012800 -0.927900
vn 0.371600 -0.011200 -0.928300
vn -0.295800 -0.537700 -0.789500
vn -0.174900 -0.652400 -0.737400
vn 0.996000 -0.061600 -0.065000
vn 0.996000 -0.069800 -0.056100
vn 0.960300 -0.200500 -0.193800
vn 0.960300 -0.209300 -0.184200
vn -0.174900 -0.787600 -0.590800
vn 0.705500 -0.662400 0.251900
vn 0.560000 -0.812500 0.162200
vn 0.371600 -0.926200 0.063600
vn 0.372600 -0.925900 0.062000
vn -0.295800 -0.830300 -0.472300
vn 0.996000 0.061600 0.065000
vn 0.996000 0.069800 0.056100
vn 0.960300 0.200500 0.193800
vn 0.960300 0.209300 0.184200
vn -0.174900 0.652400 0.737400
vn -0.174900 0.787600 0.590800
vn 0.705500 0.662400 -0.251900
vn 0.579500 0.694200 -0.426900
vn 0.547000 0.816400 -0.185100
vn 0.560000 0.812500 -0.162200
vn 0.371600 0.926200 -0.063600
vn 0.372600 0.925900 -0.062000
vn -0.295800 0.830300 0.472300
vn 0.601100 -0.301500 0.740100
vn 0.705500 -0.197700 0.680500
vn 0.548700 -0.095900 0.830500
vn 0.360800 -0.371600 0.855400
vn 0.562100 -0.089000 0.822300
vn 0.561100 -0.087600 0.823100
vn 0.372600 0.012800 0.927900
vn 0.371600 0.011200 0.928300
vn -0.295800 0.537700 0.789600
vn 0.602900 0.691900 -0.397200
vn 0.389200 0.816300 -0.426800
vn -0.053200 0.869900 -0.490300
vn -0.842200 0.501600 -0.197800
vn -0.843000 0.495500 -0.209600
vn -0.053200 -0.418600 0.906600
vn -0.842200 -0.156700 0.515900
vn -0.843000 -0.169000 0.510800
usemtl b0b0b0
s 1
f 1/1/1 8/2/2 9/3/3 2/4/4
f 2/4/5 9/3/6 10/5/7 3/6/8
f 3/6/9 10/5/10 11/7/11 4/8/12
f 4/8/13 11/7/13 12/9/13 5/10/13
f 5/10/14 12/9/15 13/11/16 6/12/17
f 6/12/18 13/11/19 14/13/20 7/14/21
f 7/14/22 14/13/23 8/15/24 1/16/25
f 31/2/26 29/17/26 30/18/27 32/3/28
f 32/3/29 30/18/30 33/19/31 34/5/32
f 10/5/33 17/19/34 18/20/35 11/7/36
f 11/7/36 18/20/35 19/21/37 12/9/38
f 12/9/38 19/21/37 20/22/39 13/11/40
f 36/11/41 35/22/42 37/23/43 38/13/44
f 38/13/45 37/23/46 29/24/26 31/15/26
f 15/17/47 22/25/48 23/26/49 16/18/50
f 16/18/51 23/26/52 24/27/53 17/19/54
f 17/19/55 24/27/56 25/28/57 18/20/58
f 18/20/59 25/28/59 26/29/59 19/21/59
f 19/21/60 26/29/61 27/30/62 20/22/63
f 20/22/64 27/30/65 28/31/66 21/23/67
f 21/23/68 28/31/69 22/32/70 15/24/71
f 15/33/72 16/33/73 40/33/74 39/33/75
f 39/33/75 40/33/74 42/33/76 41/33/77
f 41/33/78 42/33/79 30/33/80 29/33/81
f 9/33/82 8/33/83 44/33/84 43/33/85
f 43/33/86 44/33/84 46/33/87 45/33/88
f 45/33/89 46/33/90 31/33/91 32/33/92
f 16/33/93 17/33/94 47/33/95 40/33/96
f 40/33/96 47/33/95 48/33/97 42/33/98
f 42/33/99 48/33/100 33/33/31 30/33/30
f 17/33/34 10/33/33 49/33/101 47/33/102
f 47/33/102 49/33/101 50/33/103 48/33/104
f 48/33/100 50/33/105 34/33/32 33/33/31
f 10/33/106 9/33/82 43/33/85 49/33/107
f 49/33/107 43/33/85 45/33/108 50/33/109
f 50/33/105 45/33/110 32/33/29 34/33/32
f 13/33/40 20/33/39 52/33/111 51/33/112
f 51/33/112 52/33/111 54/33/113 53/33/114
f 53/33/115 54/33/116 35/33/42 36/33/41
f 20/33/117 21/33/118 55/33/119 52/33/120
f 52/33/120 55/33/119 56/33/121 54/33/122
f 54/33/116 56/33/123 37/33/43 35/33/42
f 14/33/124 13/33/125 51/33/126 57/33/127
f 57/33/128 51/33/129 53/33/130 58/33/131
f 58/33/132 53/33/115 36/33/41 38/33/44
f 21/33/133 15/33/72 39/33/75 55/33/134
f 55/33/134 39/33/75 41/33/77 56/33/135
f 56/33/136 41/33/78 29/33/81 37/33/137
f 8/33/83 14/33/124 57/33/127 44/33/84
f 44/33/84 57/33/127 58/33/138 46/33/87
f 46/33/90 58/33/139 38/33/140 31/33/91
o Grip
v 0.165392 0.093194 3.188087
v 0.166724 0.066685 3.069506
v 0.168788 0.142946 2.974902
v 0.169929 0.264446 2.975556
v 0.169377 0.339676 3.070835
v 0.167548 0.312120 3.189163
v 0.165730 0.202396 3.241385
v -0.619087 0.509107 2.859707
v -0.576387 0.465581 2.754556
v -0.480587 0.503474 2.690234
v -0.403787 0.594241 2.715147
v -0.403787 0.669472 2.810427
v -0.480587 0.672650 2.904497
v -0.576387 0.601293 2.926437
v -0.619087 1.615413 1.810693
v -0.576387 1.523226 1.743963
v -0.480587 1.451869 1.765903
v -0.403787 1.455047 1.859973
v -0.403787 1.530278 1.955253
v -0.480587 1.621045 1.980166
v -0.576387 1.658939 1.915844
v 0.183807 2.031306 1.482287
v 0.181852 1.922114 1.429002
v 0.179725 1.812407 1.481248
v 0.178930 1.784863 1.599590
v 0.180152 1.860090 1.694865
v 0.182473 1.981574 1.695500
v 0.184056 2.057820 1.600875
vt 0.200000 0.000000
vt 0.400000 0.000000
vt 0.400000 0.142857
vt 0.200000 0.142857
vt 0.400000 0.285714
vt 0.200000 0.285714
vt 0.400000 0.428571
vt 0.200000 0.428571
vt 0.400000 0.571429
vt 0.200000 0.571429
vt 0.400000 0.714286
vt 0.200000 0.714286
vt 0.400000 0.857143
vt 0.200000 0.857143
vt 0.400000 1.000000
vt 0.200000 1.000000
vt 0.600000 0.000000
vt 0.600000 0.142857
vt 0.600000 0.285714
vt 0.600000 0.428571
vt 0.600000 0.571429
vt 0.600000 0.714286
vt 0.600000 0.857143
vt 0.600000 1.000000
vt 0.800000 0.000000
vt 0.800000 0.142857
vt 0.800000 0.285714
vt 0.800000 0.428571
vt 0.800000 0.571429
vt 0.800000 0.714286
vt 0.800000 0.857143
vt 0.800000 1.000000
vn -0.562200 -0.649800 0.511600
vn -0.885400 -0.365200 0.287600
vn -0.540100 -0.732200 -0.415100
vn -0.366900 -0.892300 -0.263000
vn 0.197000 -0.568800 -0.798600
vn 0.141600 -0.450300 -0.881600
vn 0.811800 0.030400 -0.583200
vn 0.537700 0.328900 -0.776400
vn 0.796400 0.600000 0.076200
vn 0.537400 0.832000 -0.138000
vn 0.194900 0.716200 0.670200
vn 0.141300 0.752700 0.643000
vn -0.552200 0.298500 0.778500
vn -0.367600 0.047900 0.928700
vn -0.882700 0.369600 -0.290100
vn -0.550800 -0.295800 -0.780500
vn 0.194500 -0.716800 -0.669600
vn 0.794400 -0.602900 -0.074100
vn 0.810200 -0.034200 0.585100
vn 0.196700 0.567900 0.799200
vn -0.538100 0.734600 0.413300
vn -0.553500 0.655100 -0.514300
vn -0.363600 -0.042000 -0.930600
vn 0.140300 -0.754000 -0.641800
vn 0.531600 -0.835000 0.141800
vn 0.532100 -0.335400 0.777400
vn 0.140800 0.448200 0.882800
vn -0.362000 0.895500 0.258800
usemtl b0b0b0
s 1
f 59/34/141 66/35/142 67/36/143 60/37/144
f 60/37/144 67/36/143 68/38/145 61/39/146
f 61/39/146 68/38/145 69/40/147 62/41/148
f 62/41/148 69/40/147 70/42/149 63/43/150
f 63/43/150 70/42/149 71/44/151 64/45/152
f 64/45/152 71/44/151 72/46/153 65/47/154
f 65/47/154 72/46/153 66/48/142 59/49/141
f 66/35/142 73/50/155 74/51/156 67/36/143
f 67/36/143 74/51/156 75/52/157 68/38/145
f 68/38/145 75/52/157 76/53/158 69/40/147
f 69/40/147 76/53/158 77/54/159 70/42/149
f 70/42/149 77/54/159 78/55/160 71/44/151
f 71/44/151 78/55/160 79/56/161 72/46/153
f 72/46/153 79/56/161 73/57/155 66/48/142
f 73/50/155 80/58/162 81/59/163 74/51/156
f 74/51/156 81/59/163 82/60/164 75/52/157
f 75/52/157 82/60/164 83/61/165 76/53/158
f 76/53/158 83/61/165 84/62/166 77/54/159
f 77/54/159 84/62/166 85/63/167 78/55/160
f 78/55/160 85/63/167 86/64/168 79/56/161
f 79/56/161 86/64/168 80/65/162 73/57/155
o Shield
v -0.066618 3.162550 3.330034
v 0.142103 3.162550 2.839948
v 0.343307 3.162550 0.000000
v 0.132282 3.162550 -2.698564
v -0.159058 3.162550 -3.188651
v 0.025566 3.162550 -1.998460
v 0.177690 3.162550 0.000000
v 0.030787 3.162550 2.139844
v -0.084832 0.000000 4.211431
v 0.326542 0.000000 2.839948
v 0.557825 0.000000 0.000000
v 0.317146 0.000000 -2.698564
v -0.159058 0.000000 -4.070047
v 0.085036 0.000000 -2.698564
v 0.113113 0.000000 0.000000
v 0.094432 0.000000 2.839948
v -0.084832 -3.162550 3.840153
v 0.353600 -3.854529 2.839948
v 0.471491 -4.743890 0.000000
v 0.335927 -3.854529 -2.698564
v -0.159058 -3.162550 -3.698769
v -0.100685 -3.854529 -2.698564
v 0.067792 -4.778789 0.000000
v -0.083012 -3.854529 2.839948
v 0.265099 -4.778789 0.000000
vt 0.000000 1.000000
vt 0.000000 0.500000
vt 0.125000 0.500000
vt 0.125000 1.000000
vt 0.000000 0.000000
vt 0.125000 0.000000
vt 0.250000 0.500000
vt 0.250000 1.000000
vt 0.250000 0.000000
vt 0.375000 0.500000
vt 0.375000 1.000000
vt 0.375000 0.000000
vt 0.500000 0.500000
vt 0.500000 1.000000
vt 0.500000 0.000000
vt 0.625000 0.500000
vt 0.625000 1.000000
vt 0.625000 0.000000
vt 0.750000 0.500000
vt 0.750000 1.000000
vt 0.750000 0.000000
vt 0.875000 0.500000
vt 0.875000 1.000000
vt 0.875000 0.000000
vt 1.000000 0.500000
vt 1.000000 1.000000
vt 1.000000 0.000000
vn 0.946500 0.068800 0.315300
vn 0.944200 0.028200 0.328300
vn 0.945500 0.039500 0.323300
vn 0.940000 -0.014400 0.341000
vn 0.995100 0.062800 0.075800
vn 0.997600 0.017300 0.067500
vn 0.996900 0.036500 0.069400
vn 0.998000 -0.006900 0.062400
vn 0.994500 0.062800 -0.083200
vn 0.996400 0.036700 -0.077100
vn 0.997000 0.016600 -0.075500
vn 0.997400 -0.007600 -0.071100
vn 0.921500 0.079900 -0.380000
vn 0.924700 0.043800 -0.378300
vn 0.923700 0.030500 -0.381900
vn 0.923400 -0.017800 -0.383300
vn -0.985000 -0.050500 0.164900
vn -0.988400 -0.012100 0.151500
vn -0.988800 0.007200 0.148900
vn -0.990100 0.033400 0.136000
vn -0.999300 -0.003400 0.038300
vn -0.999200 0.005300 0.039600
vn -0.999100 0.011600 0.039600
vn -0.998800 0.026700 0.041000
vn -0.999400 -0.003500 -0.033200
vn -0.999400 0.011100 -0.033600
vn -0.999400 0.005100 -0.033900
vn -0.999100 0.025800 -0.034000
vn -0.993600 -0.034000 -0.107300
vn -0.995600 0.011900 -0.093000
vn -0.995100 -0.008100 -0.098100
vn -0.996000 0.029700 -0.084700
vn -0.558400 -0.788400 0.258200
vn 0.058300 -0.921000 0.385200
vn 0.162600 -0.986700 -0.005100
vn 0.141100 -0.989900 -0.016100
vn -0.501800 -0.818200 -0.280700
vn 0.127800 -0.911300 -0.391500
vn 0.863200 -0.457300 -0.213900
vn 0.001100 -1.000000 -0.003900
vn 0.850200 -0.485900 0.202500
vn 0.000000 1.000000 -0.000000
usemtl b0b0b0
s 1
f 87/66/169 95/67/170 96/68/171 88/69/169
f 95/67/170 103/70/172 104/71/172 96/68/171
f 88/69/173 96/68/174 97/72/175 89/73/173
f 96/68/174 104/71/176 105/74/176 97/72/175
f 89/73/177 97/72/178 98/75/179 90/76/177
f 97/72/178 105/74/180 106/77/180 98/75/179
f 90/76/181 98/75/182 99/78/183 91/79/181
f 98/75/182 106/77/184 107/80/184 99/78/183
f 91/79/185 99/78/186 100/81/187 92/82/185
f 99/78/186 107/80/188 108/83/188 100/81/187
f 92/82/189 100/81/190 101/84/191 93/85/189
f 100/81/190 108/83/192 109/86/192 101/84/191
f 93/85/193 101/84/194 102/87/195 94/88/193
f 101/84/194 109/86/196 110/89/196 102/87/195
f 94/88/197 102/87/198 95/90/199 87/91/197
f 102/87/198 110/89/200 103/92/200 95/90/199
f 104/71/201 103/70/202 111/66/203
f 105/74/204 104/71/201 111/66/203
f 106/77/205 105/74/204 111/66/203
f 107/80/206 106/77/205 111/66/203
f 108/83/207 107/80/206 111/66/203
f 109/86/208 108/83/207 111/66/203
f 110/89/209 109/86/208 111/66/203
f 103/92/202 110/89/209 111/66/203
f 88/70/210 94/70/210 87/70/210
f 92/70/210 90/70/210 91/70/210
f 89/70/210 94/70/210 88/70/210
f 89/70/210 93/70/210 94/70/210
f 92/70/210 89/70/210 90/70/210
f 93/70/210 89/70/210 92/70/210
